<svg xmlns="http://www.w3.org/2000/svg" width="141" height="36" viewBox="0 0 141 36" role="img" aria-label="Case study"><title>Case study</title><rect x=".5" y=".5" width="140" height="35" rx="18" fill="#2456d6" stroke="#2456d6"/>
  <svg x="18" y="9" width="18" height="18" viewBox="0 0 24 24"><path fill="none" stroke="#ffffff" stroke-linecap="round" stroke-linejoin="round" stroke-width="2" d="M12 5v16m8.001-2A2 2 0 0 0 22 17V5a2 2 0 0 0-1.999-2L16 3.002A5 5 0 0 0 12 5a5 5 0 0 0-4-2H4a2 2 0 0 0-2 2v12a2 2 0 0 0 1.999 2H8a5 5 0 0 1 4 2a5 5 0 0 1 4-2z"/></svg>
  <text x="82.5" y="23.04" text-anchor="middle" font-family="'Inter','Segoe UI',system-ui,-apple-system,sans-serif" font-size="14" font-weight="600" fill="#ffffff">Case study</text></svg>
